<svg class="main-svg" xmlns="http://www.w3.org/2000/svg" xmlns:xlink="http://www.w3.org/1999/xlink" width="800" height="500" style="" viewBox="0 0 800 500"><rect x="0" y="0" width="800" height="500" style="fill: rgb(255, 255, 255); fill-opacity: 1;"/><defs id="defs-b3ce0e"><g class="clips"><clipPath id="clipb3ce0exyplot" class="plotclip"><rect width="487" height="320"/></clipPath><clipPath class="axesclip" id="clipb3ce0ex"><rect x="80" y="0" width="487" height="500"/></clipPath><clipPath class="axesclip" id="clipb3ce0ey"><rect x="0" y="100" width="800" height="320"/></clipPath><clipPath class="axesclip" id="clipb3ce0exy"><rect x="80" y="100" width="487" height="320"/></clipPath></g><g class="gradients"/><g class="patterns"/></defs><g class="bglayer"/><g class="layer-below"><g class="imagelayer"/><g class="shapelayer"/></g><g class="cartesianlayer"><g class="subplot xy"><g class="layer-subplot"><g class="shapelayer"/><g class="imagelayer"/></g><g class="minor-gridlayer"><g class="x"/><g class="y"/></g><g class="gridlayer"><g class="x"><path class="xgrid crisp" transform="translate(177.4,0)" d="M0,100v320" style="stroke: rgb(221, 221, 221); stroke-opacity: 1; stroke-width: 1px;"/><path class="xgrid crisp" transform="translate(274.8,0)" d="M0,100v320" style="stroke: rgb(221, 221, 221); stroke-opacity: 1; stroke-width: 1px;"/><path class="xgrid crisp" transform="translate(372.2,0)" d="M0,100v320" style="stroke: rgb(221, 221, 221); stroke-opacity: 1; stroke-width: 1px;"/><path class="xgrid crisp" transform="translate(469.6,0)" d="M0,100v320" style="stroke: rgb(221, 221, 221); stroke-opacity: 1; stroke-width: 1px;"/></g><g class="y"><path class="ygrid crisp" transform="translate(0,346.4)" d="M80,0h487" style="stroke: rgb(221, 221, 221); stroke-opacity: 1; stroke-width: 1px;"/><path class="ygrid crisp" transform="translate(0,288.8)" d="M80,0h487" style="stroke: rgb(221, 221, 221); stroke-opacity: 1; stroke-width: 1px;"/><path class="ygrid crisp" transform="translate(0,231.2)" d="M80,0h487" style="stroke: rgb(221, 221, 221); stroke-opacity: 1; stroke-width: 1px;"/><path class="ygrid crisp" transform="translate(0,173.6)" d="M80,0h487" style="stroke: rgb(221, 221, 221); stroke-opacity: 1; stroke-width: 1px;"/><path class="ygrid crisp" transform="translate(0,116)" d="M80,0h487" style="stroke: rgb(221, 221, 221); stroke-opacity: 1; stroke-width: 1px;"/></g></g><g class="zerolinelayer"><path class="yzl zl crisp" transform="translate(0,404)" d="M80,0h487" style="stroke: rgb(0, 0, 0); stroke-opacity: 1; stroke-width: 1px;"/></g><g class="layer-between"><g class="shapelayer"/><g class="imagelayer"/></g><path class="xlines-below"/><path class="ylines-below"/><g class="overlines-below"/><g class="xaxislayer-below"/><g class="yaxislayer-below"/><g class="overaxes-below"/><g class="overplot"><g class="xy" transform="translate(80,100)" clip-path="url(#clipb3ce0exyplot)"><g class="scatterlayer mlayer"><g class="trace scatter tracebec5fd" style="stroke-miterlimit: 2; opacity: 1;"><g class="fills"/><g class="errorbars"/><g class="lines"><path class="js-line" d="M0,16L6.82,16.69L7.79,16.9L14.61,19.18L15.58,19.62L22.4,23.47L23.38,24.14L31.17,30.47L32.14,31.38L40.91,40.92L41.88,42.12L50.65,54.2L51.62,55.68L60.39,70.3L61.36,72.07L71.1,91.28L72.08,93.36L82.79,118.06L83.76,120.48L94.48,148.92L95.45,151.67L107.14,186.93L108.11,190.05L120.78,233.21L121.75,236.73L136.36,292.88L137.33,296.85L139.28,303.3L140.26,300.1L152.92,260.98L153.89,258.17L166.55,224.19L167.53,221.77L178.24,197.06L179.22,194.98L189.93,174L190.9,172.26L201.62,155.01L202.59,153.61L212.33,141.18L213.31,140.09L222.07,131.57L223.05,130.76L230.84,125.34L231.81,124.79L239.6,121.39L240.58,121.1L247.4,119.81L248.37,119.74L255.19,120.03L256.16,120.18L263.95,122.44L264.93,122.85L272.72,127.14L273.69,127.8L281.49,134.13L282.46,135.04L291.23,144.57L292.2,145.77L301.94,159.33L302.91,160.84L312.65,177.5L313.63,179.32L324.34,201.23L325.32,203.39L337,231.52L337.98,234.05L349.67,266.59L350.64,269.48L361.35,303.2L362.33,302.07L374.02,273.38L374.99,271.17L385.7,248.75L386.68,246.88L396.42,229.75L397.39,228.2L407.13,214.17L408.11,212.93L416.87,202.98L417.85,202.01L426.61,194.61L427.59,193.92L435.38,189.49L436.35,189.06L444.14,186.66L445.12,186.48L452.91,186.11L453.88,186.19L460.7,187.55L461.68,187.86L468.49,190.8L469.47,191.33L477.26,196.61L478.23,197.4L486.03,204.71L487,205.75" style="vector-effect: none; fill: none; stroke: rgb(255, 0, 0); stroke-opacity: 1; stroke-width: 2px; opacity: 1;"/></g><g class="points"/><g class="text"/></g><g class="trace scatter trace961e5d" style="stroke-miterlimit: 2; opacity: 1;"><g class="fills"/><g class="errorbars"/><g class="lines"><path class="js-line" d="M0,304L487,304" style="vector-effect: none; fill: none; stroke: rgb(0, 0, 0); stroke-opacity: 1; stroke-dasharray: 3px, 3px; stroke-width: 2px; opacity: 1;"/></g><g class="points"/><g class="text"/></g></g></g></g><g class="zerolinelayer-above"/><path class="xlines-above crisp" d="M79,420.5H567" style="fill: none; stroke-width: 1px; stroke: rgb(221, 221, 221); stroke-opacity: 1;"/><path class="ylines-above crisp" d="M79.5,100V420" style="fill: none; stroke-width: 1px; stroke: rgb(221, 221, 221); stroke-opacity: 1;"/><g class="overlines-above"/><g class="xaxislayer-above"><g class="xtick"><text text-anchor="middle" x="0" y="435.4" transform="translate(80,0)" style="font-family: 'Open Sans', verdana, arial, sans-serif; font-size: 12px; fill: rgb(42, 63, 95); fill-opacity: 1; white-space: pre;">0</text></g><g class="xtick"><text text-anchor="middle" x="0" y="435.4" style="font-family: 'Open Sans', verdana, arial, sans-serif; font-size: 12px; fill: rgb(42, 63, 95); fill-opacity: 1; white-space: pre;" transform="translate(177.4,0)">1</text></g><g class="xtick"><text text-anchor="middle" x="0" y="435.4" style="font-family: 'Open Sans', verdana, arial, sans-serif; font-size: 12px; fill: rgb(42, 63, 95); fill-opacity: 1; white-space: pre;" transform="translate(274.8,0)">2</text></g><g class="xtick"><text text-anchor="middle" x="0" y="435.4" style="font-family: 'Open Sans', verdana, arial, sans-serif; font-size: 12px; fill: rgb(42, 63, 95); fill-opacity: 1; white-space: pre;" transform="translate(372.2,0)">3</text></g><g class="xtick"><text text-anchor="middle" x="0" y="435.4" style="font-family: 'Open Sans', verdana, arial, sans-serif; font-size: 12px; fill: rgb(42, 63, 95); fill-opacity: 1; white-space: pre;" transform="translate(469.6,0)">4</text></g><g class="xtick"><text text-anchor="middle" x="0" y="435.4" style="font-family: 'Open Sans', verdana, arial, sans-serif; font-size: 12px; fill: rgb(42, 63, 95); fill-opacity: 1; white-space: pre;" transform="translate(567,0)">5</text></g></g><g class="yaxislayer-above"><g class="ytick"><text text-anchor="end" x="76.6" y="4.199999999999999" transform="translate(0,404)" style="font-family: 'Open Sans', verdana, arial, sans-serif; font-size: 12px; fill: rgb(42, 63, 95); fill-opacity: 1; white-space: pre;">0</text></g><g class="ytick"><text text-anchor="end" x="76.6" y="4.199999999999999" style="font-family: 'Open Sans', verdana, arial, sans-serif; font-size: 12px; fill: rgb(42, 63, 95); fill-opacity: 1; white-space: pre;" transform="translate(0,346.4)">2</text></g><g class="ytick"><text text-anchor="end" x="76.6" y="4.199999999999999" style="font-family: 'Open Sans', verdana, arial, sans-serif; font-size: 12px; fill: rgb(42, 63, 95); fill-opacity: 1; white-space: pre;" transform="translate(0,288.8)">4</text></g><g class="ytick"><text text-anchor="end" x="76.6" y="4.199999999999999" style="font-family: 'Open Sans', verdana, arial, sans-serif; font-size: 12px; fill: rgb(42, 63, 95); fill-opacity: 1; white-space: pre;" transform="translate(0,231.2)">6</text></g><g class="ytick"><text text-anchor="end" x="76.6" y="4.199999999999999" style="font-family: 'Open Sans', verdana, arial, sans-serif; font-size: 12px; fill: rgb(42, 63, 95); fill-opacity: 1; white-space: pre;" transform="translate(0,173.6)">8</text></g><g class="ytick"><text text-anchor="end" x="76.6" y="4.199999999999999" style="font-family: 'Open Sans', verdana, arial, sans-serif; font-size: 12px; fill: rgb(42, 63, 95); fill-opacity: 1; white-space: pre;" transform="translate(0,116)">10</text></g></g><g class="overaxes-above"/></g></g><g class="polarlayer"/><g class="smithlayer"/><g class="ternarylayer"/><g class="geolayer"/><g class="funnelarealayer"/><g class="pielayer"/><g class="iciclelayer"/><g class="treemaplayer"/><g class="sunburstlayer"/><g class="glimages"/><defs id="topdefs-b3ce0e"><g class="clips"/><clipPath id="legendb3ce0e"><rect width="211" height="48" x="0" y="0"/></clipPath></defs><g class="layer-above"><g class="imagelayer"/><g class="shapelayer"/></g><g class="infolayer"><g class="legend" pointer-events="all" transform="translate(576.74,100)"><rect class="bg" shape-rendering="crispEdges" style="stroke: rgb(68, 68, 68); stroke-opacity: 1; fill: rgb(255, 255, 255); fill-opacity: 1; stroke-width: 0px;" width="211" height="48" x="0" y="0"/><g class="scrollbox" transform="" clip-path="url(#legendb3ce0e)"><g class="groups"><g class="traces" transform="translate(0,14.5)" style="opacity: 1;"><text class="legendtext" text-anchor="start" x="40" y="4.680000000000001" style="font-family: 'Open Sans', verdana, arial, sans-serif; font-size: 12px; fill: rgb(42, 63, 95); fill-opacity: 1; white-space: pre;">h(t) — with bouncing event</text><g class="layers" style="opacity: 1;"><g class="legendfill"/><g class="legendlines"><path class="js-line" d="M5,0h30" style="fill: none; stroke: rgb(255, 0, 0); stroke-opacity: 1; stroke-width: 2px;"/></g><g class="legendsymbols"><g class="legendpoints"/></g></g><rect class="legendtoggle" x="0" y="-9.5" width="205.71875" height="19" style="fill: rgb(0, 0, 0); fill-opacity: 0;"/></g><g class="traces" transform="translate(0,33.5)" style="opacity: 1;"><text class="legendtext" text-anchor="start" x="40" y="4.680000000000001" style="font-family: 'Open Sans', verdana, arial, sans-serif; font-size: 12px; fill: rgb(42, 63, 95); fill-opacity: 1; white-space: pre;">h(t) — with bouncing event</text><g class="layers" style="opacity: 1;"><g class="legendfill"/><g class="legendlines"><path class="js-line" d="M5,0h30" style="fill: none; stroke: rgb(0, 0, 0); stroke-opacity: 1; stroke-dasharray: 3px, 3px; stroke-width: 2px;"/></g><g class="legendsymbols"><g class="legendpoints"/></g></g><rect class="legendtoggle" x="0" y="-9.5" width="205.71875" height="19" style="fill: rgb(0, 0, 0); fill-opacity: 0;"/></g></g></g><rect class="scrollbar" rx="20" ry="3" width="0" height="0" style="fill: rgb(128, 139, 164); fill-opacity: 1;" x="0" y="0"/></g><g class="g-gtitle"><text class="gtitle" x="40" y="50" text-anchor="start" dy="0em" style="opacity: 1; font-family: 'Open Sans', verdana, arial, sans-serif; font-size: 17px; fill: rgb(42, 63, 95); fill-opacity: 1; white-space: pre;">Bouncing ball — with `when h &#60;= 0 and v &#60; 0 then reinit(v, -e*v)`</text></g><g class="g-xtitle"><text class="xtitle" x="323.5" y="462.700390625" text-anchor="middle" style="opacity: 1; font-family: 'Open Sans', verdana, arial, sans-serif; font-size: 14px; fill: rgb(42, 63, 95); fill-opacity: 1; white-space: pre;">t (s)</text></g><g class="g-ytitle"><text class="ytitle" transform="rotate(-90,41.933984375,260)" x="41.933984375" y="260" text-anchor="middle" style="opacity: 1; font-family: 'Open Sans', verdana, arial, sans-serif; font-size: 14px; fill: rgb(42, 63, 95); fill-opacity: 1; white-space: pre;">h (m)</text></g></g></svg>