<?xml version="1.0" encoding="UTF-8" standalone="no"?>
<!DOCTYPE svg PUBLIC "-//W3C//DTD SVG 1.1//EN"
 "http://www.w3.org/Graphics/SVG/1.1/DTD/svg11.dtd">
<!-- Generated by graphviz version 14.1.5 (20260411.2331)
 -->
<!-- Title: G Pages: 1 -->
<svg width="296pt" height="79pt"
 viewBox="0.00 0.00 296.00 79.00" xmlns="http://www.w3.org/2000/svg" xmlns:xlink="http://www.w3.org/1999/xlink">
<g id="graph0" class="graph" transform="scale(1 1) rotate(0) translate(4 74.5)">
<title>G</title>
<polygon fill="white" stroke="none" points="-4,4 -4,-74.5 291.5,-74.5 291.5,4 -4,4"/>
<!-- vs_Vin -->
<g id="node1" class="node">
<title>vs_Vin</title>
<polygon fill="#ccddff" stroke="black" points="56.5,-36 0,-36 0,0 56.5,0 56.5,-36"/>
<text xml:space="preserve" text-anchor="middle" x="28.25" y="-12.2" font-family="sans-serif" font-size="14.00">vs_Vin</text>
</g>
<!-- c1_v -->
<g id="node2" class="node">
<title>c1_v</title>
<polygon fill="#ffcccc" stroke="black" points="172,-36 118,-36 118,0 172,0 172,-36"/>
<text xml:space="preserve" text-anchor="middle" x="145" y="-12.2" font-family="sans-serif" font-size="14.00">c1_v</text>
</g>
<!-- vs_Vin&#45;&gt;c1_v -->
<g id="edge2" class="edge">
<title>vs_Vin&#45;&gt;c1_v</title>
<path fill="none" stroke="black" d="M56.74,-18C71.57,-18 90.1,-18 106.26,-18"/>
<polygon fill="black" stroke="black" points="106.02,-21.5 116.02,-18 106.02,-14.5 106.02,-21.5"/>
<text xml:space="preserve" text-anchor="middle" x="87.25" y="-21.2" font-family="Times,serif" font-size="14.00">+2.0</text>
</g>
<!-- c1_v&#45;&gt;c1_v -->
<g id="edge1" class="edge">
<title>c1_v&#45;&gt;c1_v</title>
<path fill="none" stroke="black" d="M134.55,-36.15C132.95,-45.54 136.43,-54 145,-54 149.82,-54 153.03,-51.32 154.63,-47.31"/>
<polygon fill="black" stroke="black" points="158.1,-47.89 155.34,-37.66 151.12,-47.38 158.1,-47.89"/>
<text xml:space="preserve" text-anchor="middle" x="145" y="-57.2" font-family="Times,serif" font-size="14.00">&#45;2.0</text>
</g>
<!-- v_cap -->
<g id="node3" class="node">
<title>v_cap</title>
<polygon fill="#ccffcc" stroke="black" points="287.5,-36 233.5,-36 233.5,0 287.5,0 287.5,-36"/>
<text xml:space="preserve" text-anchor="middle" x="260.5" y="-12.2" font-family="sans-serif" font-size="14.00">v_cap</text>
</g>
<!-- c1_v&#45;&gt;v_cap -->
<g id="edge3" class="edge">
<title>c1_v&#45;&gt;v_cap</title>
<path fill="none" stroke="black" d="M172.32,-18C187.08,-18 205.73,-18 221.99,-18"/>
<polygon fill="black" stroke="black" points="221.8,-21.5 231.8,-18 221.8,-14.5 221.8,-21.5"/>
<text xml:space="preserve" text-anchor="middle" x="202.75" y="-21.2" font-family="Times,serif" font-size="14.00">+1.0</text>
</g>
</g>
</svg>
