<?xml version="1.0" encoding="UTF-8" standalone="no"?>
<!DOCTYPE svg PUBLIC "-//W3C//DTD SVG 1.1//EN"
 "http://www.w3.org/Graphics/SVG/1.1/DTD/svg11.dtd">
<!-- Generated by graphviz version 14.1.5 (20260411.2331)
 -->
<!-- Title: G Pages: 1 -->
<svg width="409pt" height="81pt"
 viewBox="0.00 0.00 409.00 81.00" xmlns="http://www.w3.org/2000/svg" xmlns:xlink="http://www.w3.org/1999/xlink">
<g id="graph0" class="graph" transform="scale(1 1) rotate(0) translate(4 76.68)">
<title>G</title>
<polygon fill="white" stroke="none" points="-4,4 -4,-76.68 404.5,-76.68 404.5,4 -4,4"/>
<!-- Vin -->
<g id="node1" class="node">
<title>Vin</title>
<polygon fill="#ccddff" stroke="black" points="54,-38.18 0,-38.18 0,-2.18 54,-2.18 54,-38.18"/>
<text xml:space="preserve" text-anchor="middle" x="27" y="-14.38" font-family="sans-serif" font-size="14.00">Vin</text>
</g>
<!-- iL -->
<g id="node2" class="node">
<title>iL</title>
<polygon fill="#ffcccc" stroke="black" points="169.5,-38.18 115.5,-38.18 115.5,-2.18 169.5,-2.18 169.5,-38.18"/>
<text xml:space="preserve" text-anchor="middle" x="142.5" y="-14.38" font-family="sans-serif" font-size="14.00">iL</text>
</g>
<!-- Vin&#45;&gt;iL -->
<g id="edge4" class="edge">
<title>Vin&#45;&gt;iL</title>
<path fill="none" stroke="black" d="M54.32,-20.18C69.08,-20.18 87.73,-20.18 103.99,-20.18"/>
<polygon fill="black" stroke="black" points="103.8,-23.68 113.8,-20.18 103.8,-16.68 103.8,-23.68"/>
<text xml:space="preserve" text-anchor="middle" x="84.75" y="-23.38" font-family="Times,serif" font-size="14.00">+2.0</text>
</g>
<!-- iL&#45;&gt;iL -->
<g id="edge1" class="edge">
<title>iL&#45;&gt;iL</title>
<path fill="none" stroke="black" d="M132.05,-38.33C130.45,-47.72 133.93,-56.18 142.5,-56.18 147.32,-56.18 150.53,-53.5 152.13,-49.49"/>
<polygon fill="black" stroke="black" points="155.6,-50.07 152.84,-39.84 148.62,-49.56 155.6,-50.07"/>
<text xml:space="preserve" text-anchor="middle" x="142.5" y="-59.38" font-family="Times,serif" font-size="14.00">&#45;2.0</text>
</g>
<!-- vC -->
<g id="node3" class="node">
<title>vC</title>
<polygon fill="#ffcccc" stroke="black" points="285,-38.18 231,-38.18 231,-2.18 285,-2.18 285,-38.18"/>
<text xml:space="preserve" text-anchor="middle" x="258" y="-14.38" font-family="sans-serif" font-size="14.00">vC</text>
</g>
<!-- iL&#45;&gt;vC -->
<g id="edge3" class="edge">
<title>iL&#45;&gt;vC</title>
<path fill="none" stroke="black" d="M169.82,-20.18C184.58,-20.18 203.23,-20.18 219.49,-20.18"/>
<polygon fill="black" stroke="black" points="219.3,-23.68 229.3,-20.18 219.3,-16.68 219.3,-23.68"/>
<text xml:space="preserve" text-anchor="middle" x="200.25" y="-23.38" font-family="Times,serif" font-size="14.00">+1.0</text>
</g>
<!-- vC&#45;&gt;iL -->
<g id="edge2" class="edge">
<title>vC&#45;&gt;iL</title>
<path fill="none" stroke="black" d="M230.55,-7.08C224.89,-4.84 218.85,-2.86 213,-1.68 201.89,0.56 198.61,0.56 187.5,-1.68 185.22,-2.14 182.9,-2.72 180.59,-3.4"/>
<polygon fill="black" stroke="black" points="179.69,-0.01 171.38,-6.58 181.98,-6.62 179.69,-0.01"/>
<text xml:space="preserve" text-anchor="middle" x="200.25" y="-4.88" font-family="Times,serif" font-size="14.00">&#45;2.0</text>
</g>
<!-- y -->
<g id="node4" class="node">
<title>y</title>
<polygon fill="#ccffcc" stroke="black" points="400.5,-38.18 346.5,-38.18 346.5,-2.18 400.5,-2.18 400.5,-38.18"/>
<text xml:space="preserve" text-anchor="middle" x="373.5" y="-14.38" font-family="sans-serif" font-size="14.00">y</text>
</g>
<!-- vC&#45;&gt;y -->
<g id="edge5" class="edge">
<title>vC&#45;&gt;y</title>
<path fill="none" stroke="black" d="M285.32,-20.18C300.08,-20.18 318.73,-20.18 334.99,-20.18"/>
<polygon fill="black" stroke="black" points="334.8,-23.68 344.8,-20.18 334.8,-16.68 334.8,-23.68"/>
<text xml:space="preserve" text-anchor="middle" x="315.75" y="-23.38" font-family="Times,serif" font-size="14.00">+1.0</text>
</g>
</g>
</svg>
