<svg class="main-svg" xmlns="http://www.w3.org/2000/svg" xmlns:xlink="http://www.w3.org/1999/xlink" width="800" height="500" style="" viewBox="0 0 800 500"><rect x="0" y="0" width="800" height="500" style="fill: rgb(255, 255, 255); fill-opacity: 1;"/><defs id="defs-fa1e85"><g class="clips"><clipPath id="clipfa1e85xyplot" class="plotclip"><rect width="485" height="320"/></clipPath><clipPath class="axesclip" id="clipfa1e85x"><rect x="80" y="0" width="485" height="500"/></clipPath><clipPath class="axesclip" id="clipfa1e85y"><rect x="0" y="100" width="800" height="320"/></clipPath><clipPath class="axesclip" id="clipfa1e85xy"><rect x="80" y="100" width="485" height="320"/></clipPath></g><g class="gradients"/><g class="patterns"/></defs><g class="bglayer"/><g class="layer-below"><g class="imagelayer"/><g class="shapelayer"/></g><g class="cartesianlayer"><g class="subplot xy"><g class="layer-subplot"><g class="shapelayer"/><g class="imagelayer"/></g><g class="minor-gridlayer"><g class="x"/><g class="y"/></g><g class="gridlayer"><g class="x"><path class="xgrid crisp" transform="translate(201.25,0)" d="M0,100v320" style="stroke: rgb(221, 221, 221); stroke-opacity: 1; stroke-width: 1px;"/><path class="xgrid crisp" transform="translate(322.5,0)" d="M0,100v320" style="stroke: rgb(221, 221, 221); stroke-opacity: 1; stroke-width: 1px;"/><path class="xgrid crisp" transform="translate(443.75,0)" d="M0,100v320" style="stroke: rgb(221, 221, 221); stroke-opacity: 1; stroke-width: 1px;"/></g><g class="y"><path class="ygrid crisp" transform="translate(0,382.96)" d="M80,0h485" style="stroke: rgb(221, 221, 221); stroke-opacity: 1; stroke-width: 1px;"/><path class="ygrid crisp" transform="translate(0,345.51)" d="M80,0h485" style="stroke: rgb(221, 221, 221); stroke-opacity: 1; stroke-width: 1px;"/><path class="ygrid crisp" transform="translate(0,308.06)" d="M80,0h485" style="stroke: rgb(221, 221, 221); stroke-opacity: 1; stroke-width: 1px;"/><path class="ygrid crisp" transform="translate(0,270.61)" d="M80,0h485" style="stroke: rgb(221, 221, 221); stroke-opacity: 1; stroke-width: 1px;"/><path class="ygrid crisp" transform="translate(0,233.16)" d="M80,0h485" style="stroke: rgb(221, 221, 221); stroke-opacity: 1; stroke-width: 1px;"/><path class="ygrid crisp" transform="translate(0,195.70999999999998)" d="M80,0h485" style="stroke: rgb(221, 221, 221); stroke-opacity: 1; stroke-width: 1px;"/><path class="ygrid crisp" transform="translate(0,158.27)" d="M80,0h485" style="stroke: rgb(221, 221, 221); stroke-opacity: 1; stroke-width: 1px;"/><path class="ygrid crisp" transform="translate(0,120.82)" d="M80,0h485" style="stroke: rgb(221, 221, 221); stroke-opacity: 1; stroke-width: 1px;"/></g></g><g class="zerolinelayer"/><g class="layer-between"><g class="shapelayer"/><g class="imagelayer"/></g><path class="xlines-below"/><path class="ylines-below"/><g class="overlines-below"/><g class="xaxislayer-below"/><g class="yaxislayer-below"/><g class="overaxes-below"/><g class="overplot"><g class="xy" transform="translate(80,100)" clip-path="url(#clipfa1e85xyplot)"><g class="scatterlayer mlayer"><g class="trace scatter trace43816e" style="stroke-miterlimit: 2; opacity: 1;"><g class="fills"/><g class="errorbars"/><g class="lines"><path class="js-line" d="M0,218.77L2.42,304L4.85,178.24L7.28,122.36L9.7,89.4L12.13,144.2L14.55,124.4L16.97,154.15L19.4,128.37L21.83,101.41L24.25,135.64L26.67,103.56L29.1,109.89L31.53,95.88L33.95,100.52L36.38,97.87L38.8,68.75L41.22,127.32L43.65,101.46L46.08,102.45L48.5,104.88L50.93,54.38L53.35,64.39L55.78,116.82L58.2,73.88L60.62,57.03L63.05,113.17L65.47,68.42L67.9,93.24L70.32,63.76L72.75,69.75L75.18,68.78L77.6,58.65L80.02,79.96L82.45,63.9L84.88,80.77L87.3,75.02L89.73,101.41L92.15,48.8L97,93.47L99.43,96.46L101.85,68.53L104.28,51.67L106.7,85.71L109.12,58.95L111.55,62.22L113.98,67.76L116.4,100.25L118.82,62.9L121.25,71.1L123.68,62.18L126.1,113.27L128.52,47L130.95,41.51L133.38,61.01L135.8,99.46L138.23,84.95L140.65,66.2L143.07,79.74L145.5,51.75L147.92,82.66L152.77,55.28L155.2,55.06L157.63,53.84L160.05,78.22L162.48,59.82L164.9,69.58L167.33,52.79L169.75,59.59L172.18,58.79L174.6,70.04L177.02,48.15L179.45,74.95L181.88,66.98L184.3,54.42L186.73,65.66L189.15,55.88L191.58,62.32L194,42.82L196.43,69.46L198.85,55.57L203.7,45.77L206.12,55.72L208.55,42.25L210.98,71.95L213.4,49.05L215.83,51.41L218.25,53.29L220.68,36.24L223.1,51.45L225.52,61.68L227.95,40.75L230.37,87.52L232.8,31.71L235.23,53.4L237.65,50.89L240.08,75.02L242.5,24L244.93,33.53L247.35,35.64L249.77,36.49L252.2,22.51L254.62,40.79L257.05,24.42L259.47,35.85L261.9,17.98L264.33,20.82L266.75,54.53L269.17,24.87L271.6,32.09L274.02,21.41L276.45,40.55L278.88,33.33L281.3,26.8L283.72,23.97L286.15,17.53L288.58,39.12L291,45.97L293.42,33.54L295.85,22.73L298.27,24.03L300.7,41.33L303.13,17.25L305.55,17.06L307.97,21.53L310.4,30.03L312.83,28.11L315.25,24.76L317.67,37.2L320.1,21.6L322.52,17.76L324.95,34.94L327.38,16L329.8,17.81L332.23,26.79L334.65,19.33L337.08,32.03L339.5,24.66L341.92,27.92L344.35,26.52L346.78,23.82L349.2,17.78L351.63,16.94L354.05,25.06L356.48,16.21L358.9,21.31L361.33,16.64L363.75,17.59L366.17,24.46L368.6,18.92L371.03,16.88L373.45,25.68L375.88,21.3L380.73,16.94L383.15,34.12L385.58,16L388,42.32L390.42,20.55L392.85,17.13L395.28,16L397.7,38.44L400.12,16.58L402.55,26.02L404.98,35.65L407.4,20L412.25,18.61L414.67,21.65L417.1,21.87L419.53,17.13L421.95,19.57L424.37,23.66L426.8,18.7L429.23,17.59L431.65,17.53L434.08,20.06L438.92,21.97L441.35,17.78L443.78,35.94L446.2,34.52L448.62,18.94L451.05,17.41L453.48,18.58L455.9,16L458.33,20.7L460.75,19.18L463.17,20.22L465.6,18.83L468.03,21.06L470.45,18.42L475.3,20.94L477.73,24.76L480.15,17.19L482.58,19.48" style="vector-effect: none; fill: none; stroke: rgb(170, 170, 170); stroke-opacity: 1; stroke-width: 1px; opacity: 1;"/></g><g class="points"/><g class="text"/></g><g class="trace scatter trace4745bd" style="stroke-miterlimit: 2; opacity: 1;"><g class="fills"/><g class="errorbars"/><g class="lines"><path class="js-line" d="M0,218.77L2.42,261.38L4.85,233.67L9.7,182.55L12.13,176.16L14.55,168.77L16.97,166.94L19.4,162.65L21.83,156.53L24.25,154.63L26.67,150.37L38.8,133.96L41.22,133.6L46.08,130.43L48.5,124.74L50.93,112.26L53.35,106.56L58.2,105.51L60.62,101.15L63.05,100.59L65.47,96.3L70.32,92.67L72.75,89.37L77.6,85.07L80.02,84.27L82.45,82.44L84.88,81.59L87.3,81.9L89.73,80.61L92.15,77.97L94.57,76.45L97,75.88L99.43,77.99L101.85,78.2L104.28,74.94L109.12,75.62L111.55,73.08L123.68,73.09L126.1,75.82L130.95,73.05L133.38,72.06L135.8,73.29L138.23,72.46L143.07,73.72L145.5,71.63L150.35,70.9L152.77,71.08L155.2,69.55L157.63,69.29L160.05,70.09L162.48,69.69L164.9,68.16L167.33,67.65L172.18,66.91L174.6,64.75L177.02,64.8L179.45,66.48L181.88,66.78L184.3,64.52L191.58,62.17L194,61.73L203.7,59.79L206.12,59.88L208.55,58.09L210.98,58.69L213.4,57.67L215.83,57.6L218.25,57.28L220.68,56.16L223.1,55.23L225.52,55.9L227.95,54.19L230.37,55.22L235.23,53.47L237.65,53.22L240.08,53.86L242.5,52.92L247.35,50.12L249.77,49.39L259.47,44.78L261.9,43.23L264.33,41.7L266.75,41.76L271.6,40.22L274.02,38.21L276.45,38.2L278.88,35.49L281.3,35.25L283.72,33.77L288.58,30.31L291,31.41L295.85,30.76L298.27,30.14L300.7,31.08L303.13,29.9L307.97,28.82L310.4,29.42L312.83,29.79L315.25,28.3L317.67,28.92L320.1,28.39L324.95,27.93L327.38,27.06L332.23,26.75L334.65,26.84L344.35,25.33L346.78,25.32L349.2,24.15L351.63,24.13L356.48,24.26L358.9,23.83L368.6,22.12L371.03,22.08L375.88,21.88L378.3,21.97L380.73,21.47L383.15,22.21L385.58,21.41L388,22.3L395.28,21.07L397.7,22.1L402.55,22.13L404.98,23.1L429.23,23.06L431.65,22.23L434.08,22.44L436.5,21.35L441.35,21.46L443.78,22.45L451.05,21.94L453.48,21.09L465.6,20.75L468.03,20.94L482.58,21.13" style="vector-effect: none; fill: none; stroke: rgb(65, 105, 225); stroke-opacity: 1; stroke-width: 2px; opacity: 1;"/></g><g class="points"/><g class="text"/></g><g class="trace scatter trace61f768" style="stroke-miterlimit: 2; opacity: 1;"><g class="fills"/><g class="errorbars"/><g class="lines"><path class="js-line" d="M0,172.52L485,172.52" style="vector-effect: none; fill: none; stroke: rgb(255, 0, 0); stroke-opacity: 1; stroke-dasharray: 3px, 3px; stroke-width: 2px; opacity: 1;"/></g><g class="points"/><g class="text"/></g></g></g></g><g class="zerolinelayer-above"/><path class="xlines-above crisp" d="M79,420.5H565" style="fill: none; stroke-width: 1px; stroke: rgb(221, 221, 221); stroke-opacity: 1;"/><path class="ylines-above crisp" d="M79.5,100V420" style="fill: none; stroke-width: 1px; stroke: rgb(221, 221, 221); stroke-opacity: 1;"/><g class="overlines-above"/><g class="xaxislayer-above"><g class="xtick"><text text-anchor="middle" x="0" y="435.4" transform="translate(80,0)" style="font-family: 'Open Sans', verdana, arial, sans-serif; font-size: 12px; fill: rgb(42, 63, 95); fill-opacity: 1; white-space: pre;">0</text></g><g class="xtick"><text text-anchor="middle" x="0" y="435.4" style="font-family: 'Open Sans', verdana, arial, sans-serif; font-size: 12px; fill: rgb(42, 63, 95); fill-opacity: 1; white-space: pre;" transform="translate(201.25,0)">50</text></g><g class="xtick"><text text-anchor="middle" x="0" y="435.4" style="font-family: 'Open Sans', verdana, arial, sans-serif; font-size: 12px; fill: rgb(42, 63, 95); fill-opacity: 1; white-space: pre;" transform="translate(322.5,0)">100</text></g><g class="xtick"><text text-anchor="middle" x="0" y="435.4" style="font-family: 'Open Sans', verdana, arial, sans-serif; font-size: 12px; fill: rgb(42, 63, 95); fill-opacity: 1; white-space: pre;" transform="translate(443.75,0)">150</text></g><g class="xtick"><text text-anchor="middle" x="0" y="435.4" style="font-family: 'Open Sans', verdana, arial, sans-serif; font-size: 12px; fill: rgb(42, 63, 95); fill-opacity: 1; white-space: pre;" transform="translate(565,0)">200</text></g></g><g class="yaxislayer-above"><g class="ytick"><text text-anchor="end" x="76.6" y="4.199999999999999" transform="translate(0,382.96)" style="font-family: 'Open Sans', verdana, arial, sans-serif; font-size: 12px; fill: rgb(42, 63, 95); fill-opacity: 1; white-space: pre;">−80</text></g><g class="ytick"><text text-anchor="end" x="76.6" y="4.199999999999999" style="font-family: 'Open Sans', verdana, arial, sans-serif; font-size: 12px; fill: rgb(42, 63, 95); fill-opacity: 1; white-space: pre;" transform="translate(0,345.51)">−70</text></g><g class="ytick"><text text-anchor="end" x="76.6" y="4.199999999999999" style="font-family: 'Open Sans', verdana, arial, sans-serif; font-size: 12px; fill: rgb(42, 63, 95); fill-opacity: 1; white-space: pre;" transform="translate(0,308.06)">−60</text></g><g class="ytick"><text text-anchor="end" x="76.6" y="4.199999999999999" style="font-family: 'Open Sans', verdana, arial, sans-serif; font-size: 12px; fill: rgb(42, 63, 95); fill-opacity: 1; white-space: pre;" transform="translate(0,270.61)">−50</text></g><g class="ytick"><text text-anchor="end" x="76.6" y="4.199999999999999" style="font-family: 'Open Sans', verdana, arial, sans-serif; font-size: 12px; fill: rgb(42, 63, 95); fill-opacity: 1; white-space: pre;" transform="translate(0,233.16)">−40</text></g><g class="ytick"><text text-anchor="end" x="76.6" y="4.199999999999999" style="font-family: 'Open Sans', verdana, arial, sans-serif; font-size: 12px; fill: rgb(42, 63, 95); fill-opacity: 1; white-space: pre;" transform="translate(0,195.70999999999998)">−30</text></g><g class="ytick"><text text-anchor="end" x="76.6" y="4.199999999999999" style="font-family: 'Open Sans', verdana, arial, sans-serif; font-size: 12px; fill: rgb(42, 63, 95); fill-opacity: 1; white-space: pre;" transform="translate(0,158.27)">−20</text></g><g class="ytick"><text text-anchor="end" x="76.6" y="4.199999999999999" style="font-family: 'Open Sans', verdana, arial, sans-serif; font-size: 12px; fill: rgb(42, 63, 95); fill-opacity: 1; white-space: pre;" transform="translate(0,120.82)">−10</text></g></g><g class="overaxes-above"/></g></g><g class="polarlayer"/><g class="smithlayer"/><g class="ternarylayer"/><g class="geolayer"/><g class="funnelarealayer"/><g class="pielayer"/><g class="iciclelayer"/><g class="treemaplayer"/><g class="sunburstlayer"/><g class="glimages"/><defs id="topdefs-fa1e85"><g class="clips"/><clipPath id="legendfa1e85"><rect width="213" height="67" x="0" y="0"/></clipPath></defs><g class="layer-above"><g class="imagelayer"/><g class="shapelayer"/></g><g class="infolayer"><g class="legend" pointer-events="all" transform="translate(574.7,100)"><rect class="bg" shape-rendering="crispEdges" style="stroke: rgb(68, 68, 68); stroke-opacity: 1; fill: rgb(255, 255, 255); fill-opacity: 1; stroke-width: 0px;" width="213" height="67" x="0" y="0"/><g class="scrollbox" transform="" clip-path="url(#legendfa1e85)"><g class="groups"><g class="traces" transform="translate(0,14.5)" style="opacity: 1;"><text class="legendtext" text-anchor="start" x="40" y="4.680000000000001" style="font-family: 'Open Sans', verdana, arial, sans-serif; font-size: 12px; fill: rgb(42, 63, 95); fill-opacity: 1; white-space: pre;">raw episode reward</text><g class="layers" style="opacity: 1;"><g class="legendfill"/><g class="legendlines"><path class="js-line" d="M5,0h30" style="fill: none; stroke: rgb(170, 170, 170); stroke-opacity: 1; stroke-width: 1px;"/></g><g class="legendsymbols"><g class="legendpoints"/></g></g><rect class="legendtoggle" x="0" y="-9.5" width="207.5625" height="19" style="fill: rgb(0, 0, 0); fill-opacity: 0;"/></g><g class="traces" transform="translate(0,33.5)" style="opacity: 1;"><text class="legendtext" text-anchor="start" x="40" y="4.680000000000001" style="font-family: 'Open Sans', verdana, arial, sans-serif; font-size: 12px; fill: rgb(42, 63, 95); fill-opacity: 1; white-space: pre;">20-episode moving average</text><g class="layers" style="opacity: 1;"><g class="legendfill"/><g class="legendlines"><path class="js-line" d="M5,0h30" style="fill: none; stroke: rgb(65, 105, 225); stroke-opacity: 1; stroke-width: 2px;"/></g><g class="legendsymbols"><g class="legendpoints"/></g></g><rect class="legendtoggle" x="0" y="-9.5" width="207.5625" height="19" style="fill: rgb(0, 0, 0); fill-opacity: 0;"/></g><g class="traces" transform="translate(0,52.5)" style="opacity: 1;"><text class="legendtext" text-anchor="start" x="40" y="4.680000000000001" style="font-family: 'Open Sans', verdana, arial, sans-serif; font-size: 12px; fill: rgb(42, 63, 95); fill-opacity: 1; white-space: pre;">random baseline</text><g class="layers" style="opacity: 1;"><g class="legendfill"/><g class="legendlines"><path class="js-line" d="M5,0h30" style="fill: none; stroke: rgb(255, 0, 0); stroke-opacity: 1; stroke-dasharray: 3px, 3px; stroke-width: 2px;"/></g><g class="legendsymbols"><g class="legendpoints"/></g></g><rect class="legendtoggle" x="0" y="-9.5" width="207.5625" height="19" style="fill: rgb(0, 0, 0); fill-opacity: 0;"/></g></g></g><rect class="scrollbar" rx="20" ry="3" width="0" height="0" style="fill: rgb(128, 139, 164); fill-opacity: 1;" x="0" y="0"/></g><g class="g-gtitle"><text class="gtitle" x="40" y="50" text-anchor="start" dy="0em" style="opacity: 1; font-family: 'Open Sans', verdana, arial, sans-serif; font-size: 17px; fill: rgb(42, 63, 95); fill-opacity: 1; white-space: pre;">Q-learning: episode reward over training</text></g><g class="g-xtitle"><text class="xtitle" x="322.5" y="462.700390625" text-anchor="middle" style="opacity: 1; font-family: 'Open Sans', verdana, arial, sans-serif; font-size: 14px; fill: rgb(42, 63, 95); fill-opacity: 1; white-space: pre;">episode</text></g><g class="g-ytitle"><text class="ytitle" transform="rotate(-90,32.121484375,260)" x="32.121484375" y="260" text-anchor="middle" style="opacity: 1; font-family: 'Open Sans', verdana, arial, sans-serif; font-size: 14px; fill: rgb(42, 63, 95); fill-opacity: 1; white-space: pre;">total episode reward</text></g></g></svg>