<svg class="main-svg" xmlns="http://www.w3.org/2000/svg" xmlns:xlink="http://www.w3.org/1999/xlink" width="800" height="500" style="" viewBox="0 0 800 500"><rect x="0" y="0" width="800" height="500" style="fill: rgb(255, 255, 255); fill-opacity: 1;"/><defs id="defs-918a69"><g class="clips"><clipPath id="clip918a69xyplot" class="plotclip"><rect width="485" height="320"/></clipPath><clipPath class="axesclip" id="clip918a69x"><rect x="80" y="0" width="485" height="500"/></clipPath><clipPath class="axesclip" id="clip918a69y"><rect x="0" y="100" width="800" height="320"/></clipPath><clipPath class="axesclip" id="clip918a69xy"><rect x="80" y="100" width="485" height="320"/></clipPath></g><g class="gradients"/><g class="patterns"/></defs><g class="bglayer"/><g class="layer-below"><g class="imagelayer"/><g class="shapelayer"/></g><g class="cartesianlayer"><g class="subplot xy"><g class="layer-subplot"><g class="shapelayer"/><g class="imagelayer"/></g><g class="minor-gridlayer"><g class="x"/><g class="y"/></g><g class="gridlayer"><g class="x"><path class="xgrid crisp" transform="translate(201.25,0)" d="M0,100v320" style="stroke: rgb(221, 221, 221); stroke-opacity: 1; stroke-width: 1px;"/><path class="xgrid crisp" transform="translate(322.5,0)" d="M0,100v320" style="stroke: rgb(221, 221, 221); stroke-opacity: 1; stroke-width: 1px;"/><path class="xgrid crisp" transform="translate(443.75,0)" d="M0,100v320" style="stroke: rgb(221, 221, 221); stroke-opacity: 1; stroke-width: 1px;"/></g><g class="y"><path class="ygrid crisp" transform="translate(0,359.54)" d="M80,0h485" style="stroke: rgb(221, 221, 221); stroke-opacity: 1; stroke-width: 1px;"/><path class="ygrid crisp" transform="translate(0,298.1)" d="M80,0h485" style="stroke: rgb(221, 221, 221); stroke-opacity: 1; stroke-width: 1px;"/><path class="ygrid crisp" transform="translate(0,236.65)" d="M80,0h485" style="stroke: rgb(221, 221, 221); stroke-opacity: 1; stroke-width: 1px;"/><path class="ygrid crisp" transform="translate(0,175.20999999999998)" d="M80,0h485" style="stroke: rgb(221, 221, 221); stroke-opacity: 1; stroke-width: 1px;"/></g></g><g class="zerolinelayer"><path class="yzl zl crisp" transform="translate(0,113.77)" d="M80,0h485" style="stroke: rgb(0, 0, 0); stroke-opacity: 1; stroke-width: 1px;"/></g><g class="layer-between"><g class="shapelayer"/><g class="imagelayer"/></g><path class="xlines-below"/><path class="ylines-below"/><g class="overlines-below"/><g class="xaxislayer-below"/><g class="yaxislayer-below"/><g class="overaxes-below"/><g class="overplot"><g class="xy" transform="translate(80,100)" clip-path="url(#clip918a69xyplot)"><g class="scatterlayer mlayer"><g class="trace scatter tracee786dc" style="stroke-miterlimit: 2; opacity: 1;"><g class="fills"/><g class="errorbars"/><g class="lines"><path class="js-line" d="M0,251.96L2.42,304L4.85,220.67L9.7,107.35L12.13,170.1L14.55,144.16L16.97,196.38L19.4,109.79L21.83,115.63L24.25,120.98L26.67,129.17L29.1,131.23L31.53,90.27L33.95,98.26L36.38,120.04L38.8,81.63L41.22,135.22L43.65,120.28L46.08,87.86L48.5,108.24L50.93,75.03L53.35,79.8L55.78,147.28L58.2,72.92L60.62,75.42L63.05,115.62L65.47,77.46L67.9,94.54L70.32,82.28L72.75,64.5L75.18,73.11L77.6,73.64L80.02,58.08L82.45,49.65L84.88,95.24L92.15,35.69L94.57,59.69L97,61.01L99.43,64.35L101.85,51L104.28,58.58L106.7,61.77L109.12,39L111.55,40.03L113.98,37.96L116.4,62.78L118.82,44.28L121.25,37.65L123.68,43.72L126.1,85.96L128.52,21.42L130.95,32.59L133.38,39.44L135.8,29.67L138.23,52.37L140.65,33.62L143.07,45.38L145.5,28.2L147.92,34.89L150.35,41.87L152.77,39.37L155.2,40.86L157.63,29.14L160.05,31.2L162.48,25.76L164.9,19.75L167.33,36.78L169.75,24.56L172.18,33.88L177.02,20.54L179.45,35.4L181.88,31.93L184.3,16.47L186.73,32.89L189.15,34.63L191.58,16.91L194,28.58L196.43,18.31L198.85,16.3L201.27,24.51L203.7,19.05L206.12,20.66L208.55,17.26L210.98,38.72L213.4,20.59L215.83,18.46L218.25,19.29L220.68,18.94L223.1,27.82L225.52,27.19L227.95,16L230.37,19.05L232.8,23.56L235.23,24.11L237.65,19.08L240.08,21.8L242.5,20.96L244.93,16.45L247.35,19.23L249.77,24.36L252.2,22.18L254.62,21.02L257.05,25.48L259.47,17.9L261.9,19.05L264.33,26.45L266.75,25.82L269.17,20.73L271.6,19.14L274.02,18.71L276.45,25.94L278.88,16L281.3,19.03L283.72,18.71L286.15,16L291,21.27L293.42,26.83L295.85,32.18L298.27,23.53L300.7,16.3L303.13,17.9L305.55,16L307.97,19.58L310.4,21.28L312.83,20.6L315.25,19.24L317.67,21.74L320.1,16.2L322.52,26.45L327.38,16.44L329.8,18.71L332.23,18.81L334.65,21.43L337.08,18.19L339.5,21.28L341.92,18.19L344.35,20.69L346.78,23.49L349.2,16.2L351.63,18.71L354.05,23.31L356.48,16L358.9,22.64L361.33,18.63L363.75,19.15L366.17,25.12L368.6,16.3L373.45,19.15L375.88,17.9L378.3,21.35L380.73,18.71L383.15,20.9L385.58,17.9L388,22.71L390.42,23.53L395.28,16.3L397.7,18.66L400.12,16L402.55,19.36L404.98,45.38L407.4,26.34L412.25,16.73L414.67,28.05L417.1,21.93L419.53,23.6L421.95,24.09L424.37,27.4L426.8,20.95L429.23,21.44L431.65,16.53L434.08,19.38L436.5,28.47L438.92,29.11L441.35,19.61L443.78,34.18L451.05,18.71L453.48,23.32L455.9,16.53L458.33,18.73L460.75,21.43L463.17,22.14L465.6,20.61L468.03,28.47L470.45,16.53L472.87,21.48L475.3,27.21L477.73,21.77L480.15,16.2L482.58,23.68" style="vector-effect: none; fill: none; stroke: rgb(170, 170, 170); stroke-opacity: 1; stroke-width: 1px; opacity: 1;"/></g><g class="points"/><g class="text"/></g><g class="trace scatter tracee5363a" style="stroke-miterlimit: 2; opacity: 1;"><g class="fills"/><g class="errorbars"/><g class="lines"><path class="js-line" d="M0,251.96L2.42,277.98L4.85,258.88L9.7,210.94L12.13,204.13L14.55,195.56L16.97,195.67L21.83,179.08L24.25,173.79L29.1,167.09L31.53,161.6L33.95,157.38L36.38,155.04L38.8,150.72L41.22,149.86L43.65,148.31L46.08,145.28L48.5,138.1L50.93,126.65L53.35,119.61L55.78,118.43L58.2,116.71L60.62,111.98L63.05,110.55L65.47,104.61L67.9,103.84L70.32,102.18L77.6,93.67L80.02,92.06L82.45,89.63L84.88,88.39L87.3,88.11L89.73,84.19L92.15,79.96L94.57,78.55L97,76.19L99.43,75.65L101.85,74.21L104.28,69.78L106.7,69.22L109.12,67.4L111.55,63.62L113.98,61.64L123.68,55.34L126.1,55.96L128.52,54.13L130.95,53.27L135.8,48.16L138.23,47.95L143.07,47.13L145.5,45.49L147.92,44.01L150.35,43.56L157.63,41.06L160.05,40.62L162.48,40.01L164.9,37.86L172.18,36.33L174.6,33.42L181.88,33.14L184.3,32.48L186.73,31.51L189.15,31.56L191.58,30.13L194,30.15L208.55,25.09L210.98,25.74L213.4,25.78L215.83,24.87L223.1,23.86L225.52,24.2L230.37,22.58L232.8,22.94L242.5,21.58L244.93,21.49L257.05,22.21L259.47,21.17L264.33,21.5L266.75,21.82L271.6,21.48L274.02,21.05L278.88,21.4L281.3,21.17L291,20.63L293.42,21.15L298.27,21.76L300.7,21.46L320.1,20.31L322.52,20.7L332.23,20.5L334.65,20.77L341.92,20.29L344.35,19.71L402.55,19.37L404.98,20.84L431.65,22.36L434.08,22.43L443.78,23.91L446.2,24.41L451.05,24.72L453.48,23.62L458.33,23.02L460.75,23.25L465.6,22.89L468.03,23.13L472.87,22.46L475.3,22.77L482.58,22.99" style="vector-effect: none; fill: none; stroke: rgb(65, 105, 225); stroke-opacity: 1; stroke-width: 2px; opacity: 1;"/></g><g class="points"/><g class="text"/></g><g class="trace scatter trace2901d7" style="stroke-miterlimit: 2; opacity: 1;"><g class="fills"/><g class="errorbars"/><g class="lines"><path class="js-line" d="M0,209.92L485,209.92" style="vector-effect: none; fill: none; stroke: rgb(255, 0, 0); stroke-opacity: 1; stroke-dasharray: 3px, 3px; stroke-width: 2px; opacity: 1;"/></g><g class="points"/><g class="text"/></g></g></g></g><g class="zerolinelayer-above"/><path class="xlines-above crisp" d="M79,420.5H565" style="fill: none; stroke-width: 1px; stroke: rgb(221, 221, 221); stroke-opacity: 1;"/><path class="ylines-above crisp" d="M79.5,100V420" style="fill: none; stroke-width: 1px; stroke: rgb(221, 221, 221); stroke-opacity: 1;"/><g class="overlines-above"/><g class="xaxislayer-above"><g class="xtick"><text text-anchor="middle" x="0" y="435.4" transform="translate(80,0)" style="font-family: 'Open Sans', verdana, arial, sans-serif; font-size: 12px; fill: rgb(42, 63, 95); fill-opacity: 1; white-space: pre;">0</text></g><g class="xtick"><text text-anchor="middle" x="0" y="435.4" style="font-family: 'Open Sans', verdana, arial, sans-serif; font-size: 12px; fill: rgb(42, 63, 95); fill-opacity: 1; white-space: pre;" transform="translate(201.25,0)">50</text></g><g class="xtick"><text text-anchor="middle" x="0" y="435.4" style="font-family: 'Open Sans', verdana, arial, sans-serif; font-size: 12px; fill: rgb(42, 63, 95); fill-opacity: 1; white-space: pre;" transform="translate(322.5,0)">100</text></g><g class="xtick"><text text-anchor="middle" x="0" y="435.4" style="font-family: 'Open Sans', verdana, arial, sans-serif; font-size: 12px; fill: rgb(42, 63, 95); fill-opacity: 1; white-space: pre;" transform="translate(443.75,0)">150</text></g><g class="xtick"><text text-anchor="middle" x="0" y="435.4" style="font-family: 'Open Sans', verdana, arial, sans-serif; font-size: 12px; fill: rgb(42, 63, 95); fill-opacity: 1; white-space: pre;" transform="translate(565,0)">200</text></g></g><g class="yaxislayer-above"><g class="ytick"><text text-anchor="end" x="76.6" y="4.199999999999999" transform="translate(0,359.54)" style="font-family: 'Open Sans', verdana, arial, sans-serif; font-size: 12px; fill: rgb(42, 63, 95); fill-opacity: 1; white-space: pre;">−80</text></g><g class="ytick"><text text-anchor="end" x="76.6" y="4.199999999999999" style="font-family: 'Open Sans', verdana, arial, sans-serif; font-size: 12px; fill: rgb(42, 63, 95); fill-opacity: 1; white-space: pre;" transform="translate(0,298.1)">−60</text></g><g class="ytick"><text text-anchor="end" x="76.6" y="4.199999999999999" style="font-family: 'Open Sans', verdana, arial, sans-serif; font-size: 12px; fill: rgb(42, 63, 95); fill-opacity: 1; white-space: pre;" transform="translate(0,236.65)">−40</text></g><g class="ytick"><text text-anchor="end" x="76.6" y="4.199999999999999" style="font-family: 'Open Sans', verdana, arial, sans-serif; font-size: 12px; fill: rgb(42, 63, 95); fill-opacity: 1; white-space: pre;" transform="translate(0,175.20999999999998)">−20</text></g><g class="ytick"><text text-anchor="end" x="76.6" y="4.199999999999999" style="font-family: 'Open Sans', verdana, arial, sans-serif; font-size: 12px; fill: rgb(42, 63, 95); fill-opacity: 1; white-space: pre;" transform="translate(0,113.77)">0</text></g></g><g class="overaxes-above"/></g></g><g class="polarlayer"/><g class="smithlayer"/><g class="ternarylayer"/><g class="geolayer"/><g class="funnelarealayer"/><g class="pielayer"/><g class="iciclelayer"/><g class="treemaplayer"/><g class="sunburstlayer"/><g class="glimages"/><defs id="topdefs-918a69"><g class="clips"/><clipPath id="legend918a69"><rect width="213" height="67" x="0" y="0"/></clipPath></defs><g class="layer-above"><g class="imagelayer"/><g class="shapelayer"/></g><g class="infolayer"><g class="legend" pointer-events="all" transform="translate(574.7,100)"><rect class="bg" shape-rendering="crispEdges" style="stroke: rgb(68, 68, 68); stroke-opacity: 1; fill: rgb(255, 255, 255); fill-opacity: 1; stroke-width: 0px;" width="213" height="67" x="0" y="0"/><g class="scrollbox" transform="" clip-path="url(#legend918a69)"><g class="groups"><g class="traces" transform="translate(0,14.5)" style="opacity: 1;"><text class="legendtext" text-anchor="start" x="40" y="4.680000000000001" style="font-family: 'Open Sans', verdana, arial, sans-serif; font-size: 12px; fill: rgb(42, 63, 95); fill-opacity: 1; white-space: pre;">raw episode reward</text><g class="layers" style="opacity: 1;"><g class="legendfill"/><g class="legendlines"><path class="js-line" d="M5,0h30" style="fill: none; stroke: rgb(170, 170, 170); stroke-opacity: 1; stroke-width: 1px;"/></g><g class="legendsymbols"><g class="legendpoints"/></g></g><rect class="legendtoggle" x="0" y="-9.5" width="207.5625" height="19" style="fill: rgb(0, 0, 0); fill-opacity: 0;"/></g><g class="traces" transform="translate(0,33.5)" style="opacity: 1;"><text class="legendtext" text-anchor="start" x="40" y="4.680000000000001" style="font-family: 'Open Sans', verdana, arial, sans-serif; font-size: 12px; fill: rgb(42, 63, 95); fill-opacity: 1; white-space: pre;">20-episode moving average</text><g class="layers" style="opacity: 1;"><g class="legendfill"/><g class="legendlines"><path class="js-line" d="M5,0h30" style="fill: none; stroke: rgb(65, 105, 225); stroke-opacity: 1; stroke-width: 2px;"/></g><g class="legendsymbols"><g class="legendpoints"/></g></g><rect class="legendtoggle" x="0" y="-9.5" width="207.5625" height="19" style="fill: rgb(0, 0, 0); fill-opacity: 0;"/></g><g class="traces" transform="translate(0,52.5)" style="opacity: 1;"><text class="legendtext" text-anchor="start" x="40" y="4.680000000000001" style="font-family: 'Open Sans', verdana, arial, sans-serif; font-size: 12px; fill: rgb(42, 63, 95); fill-opacity: 1; white-space: pre;">random baseline</text><g class="layers" style="opacity: 1;"><g class="legendfill"/><g class="legendlines"><path class="js-line" d="M5,0h30" style="fill: none; stroke: rgb(255, 0, 0); stroke-opacity: 1; stroke-dasharray: 3px, 3px; stroke-width: 2px;"/></g><g class="legendsymbols"><g class="legendpoints"/></g></g><rect class="legendtoggle" x="0" y="-9.5" width="207.5625" height="19" style="fill: rgb(0, 0, 0); fill-opacity: 0;"/></g></g></g><rect class="scrollbar" rx="20" ry="3" width="0" height="0" style="fill: rgb(128, 139, 164); fill-opacity: 1;" x="0" y="0"/></g><g class="g-gtitle"><text class="gtitle" x="40" y="50" text-anchor="start" dy="0em" style="opacity: 1; font-family: 'Open Sans', verdana, arial, sans-serif; font-size: 17px; fill: rgb(42, 63, 95); fill-opacity: 1; white-space: pre;">Q-learning: episode reward over training</text></g><g class="g-xtitle"><text class="xtitle" x="322.5" y="462.700390625" text-anchor="middle" style="opacity: 1; font-family: 'Open Sans', verdana, arial, sans-serif; font-size: 14px; fill: rgb(42, 63, 95); fill-opacity: 1; white-space: pre;">episode</text></g><g class="g-ytitle"><text class="ytitle" transform="rotate(-90,32.121484375,260)" x="32.121484375" y="260" text-anchor="middle" style="opacity: 1; font-family: 'Open Sans', verdana, arial, sans-serif; font-size: 14px; fill: rgb(42, 63, 95); fill-opacity: 1; white-space: pre;">total episode reward</text></g></g></svg>