<svg class="main-svg" xmlns="http://www.w3.org/2000/svg" xmlns:xlink="http://www.w3.org/1999/xlink" width="800" height="500" style="" viewBox="0 0 800 500"><rect x="0" y="0" width="800" height="500" style="fill: rgb(255, 255, 255); fill-opacity: 1;"/><defs id="defs-77d8d2"><g class="clips"><clipPath id="clip77d8d2xyplot" class="plotclip"><rect width="553" height="320"/></clipPath><clipPath class="axesclip" id="clip77d8d2x"><rect x="80" y="0" width="553" height="500"/></clipPath><clipPath class="axesclip" id="clip77d8d2y"><rect x="0" y="100" width="800" height="320"/></clipPath><clipPath class="axesclip" id="clip77d8d2xy"><rect x="80" y="100" width="553" height="320"/></clipPath></g><g class="gradients"/><g class="patterns"/></defs><g class="bglayer"/><g class="layer-below"><g class="imagelayer"/><g class="shapelayer"/></g><g class="cartesianlayer"><g class="subplot xy"><g class="layer-subplot"><g class="shapelayer"/><g class="imagelayer"/></g><g class="minor-gridlayer"><g class="x"/><g class="y"/></g><g class="gridlayer"><g class="x"><path class="xgrid crisp" transform="translate(218.25,0)" d="M0,100v320" style="stroke: rgb(221, 221, 221); stroke-opacity: 1; stroke-width: 1px;"/><path class="xgrid crisp" transform="translate(356.5,0)" d="M0,100v320" style="stroke: rgb(221, 221, 221); stroke-opacity: 1; stroke-width: 1px;"/><path class="xgrid crisp" transform="translate(494.75,0)" d="M0,100v320" style="stroke: rgb(221, 221, 221); stroke-opacity: 1; stroke-width: 1px;"/></g><g class="y"><path class="ygrid crisp" transform="translate(0,404)" d="M80,0h553" style="stroke: rgb(221, 221, 221); stroke-opacity: 1; stroke-width: 1px;"/><path class="ygrid crisp" transform="translate(0,356)" d="M80,0h553" style="stroke: rgb(221, 221, 221); stroke-opacity: 1; stroke-width: 1px;"/><path class="ygrid crisp" transform="translate(0,308)" d="M80,0h553" style="stroke: rgb(221, 221, 221); stroke-opacity: 1; stroke-width: 1px;"/><path class="ygrid crisp" transform="translate(0,212)" d="M80,0h553" style="stroke: rgb(221, 221, 221); stroke-opacity: 1; stroke-width: 1px;"/><path class="ygrid crisp" transform="translate(0,164)" d="M80,0h553" style="stroke: rgb(221, 221, 221); stroke-opacity: 1; stroke-width: 1px;"/><path class="ygrid crisp" transform="translate(0,116)" d="M80,0h553" style="stroke: rgb(221, 221, 221); stroke-opacity: 1; stroke-width: 1px;"/></g></g><g class="zerolinelayer"><path class="yzl zl crisp" transform="translate(0,260)" d="M80,0h553" style="stroke: rgb(0, 0, 0); stroke-opacity: 1; stroke-width: 1px;"/></g><g class="layer-between"><g class="shapelayer"/><g class="imagelayer"/></g><path class="xlines-below"/><path class="ylines-below"/><g class="overlines-below"/><g class="xaxislayer-below"/><g class="yaxislayer-below"/><g class="overaxes-below"/><g class="overplot"><g class="xy" transform="translate(80,100)" clip-path="url(#clip77d8d2xyplot)"><g class="scatterlayer mlayer"><g class="trace scatter tracea91199" style="stroke-miterlimit: 2; opacity: 1;"><g class="fills"/><g class="errorbars"/><g class="lines"><path class="js-line" d="M0,160L16.59,159.37L17.7,159.24L27.65,157.28L28.76,156.97L38.71,153.34L39.82,152.85L53.09,146.09L54.19,145.49L69.68,137.73L70.78,137.28L79.63,134.68L80.74,134.49L87.37,134.13L88.48,134.2L95.12,135.55L96.22,135.93L102.86,139.13L103.96,139.81L111.71,145.79L112.81,146.8L121.66,156.03L122.77,157.31L150.42,189.31L151.52,190.33L159.26,196.34L160.37,197.02L167.01,200.05L168.11,200.37L173.64,201.17L174.75,201.16L180.28,200.27L181.38,199.92L186.91,197.33L188.02,196.65L194.66,191.42L195.76,190.36L203.5,181.74L204.61,180.35L215.67,164.94L216.78,163.31L234.47,138.43L235.58,137.09L243.32,128.87L244.43,127.88L251.06,123.04L252.17,122.42L257.7,120.14L258.8,119.85L264.33,119.23L265.44,119.27L270.97,120.28L272.08,120.63L278.71,123.81L279.82,124.51L287.56,130.54L288.67,131.56L298.62,141.96L299.73,143.22L324.06,170.7L325.16,171.75L334.01,178.89L335.12,179.61L342.86,183.58L343.97,183.99L350.6,185.61L351.71,185.74L359.45,185.71L360.56,185.58L369.4,183.51L370.51,183.15L382.68,178.09L383.78,177.57L411.43,165.02L412.54,164.62L425.81,160.61L426.92,160.34L449.04,155.66L450.14,155.42L466.73,151.13L467.84,150.79L506.55,138.48L507.65,138.29L516.5,137.7L517.61,137.75L525.35,138.92L526.46,139.21L534.2,142.22L535.3,142.78L543.05,147.64L544.15,148.46L553,155.95" style="vector-effect: none; fill: none; stroke: rgb(255, 0, 0); stroke-opacity: 1; stroke-width: 2px; opacity: 1;"/></g><g class="points"/><g class="text"/></g><g class="trace scatter trace5c3833" style="stroke-miterlimit: 2; opacity: 1;"><g class="fills"/><g class="errorbars"/><g class="lines"><path class="js-line" d="M0,160L17.73,89.32L18.84,85.34L27.71,56.54L28.81,53.38L35.46,36.84L36.57,34.51L42.11,24.85L43.22,23.32L47.65,18.65L48.76,17.84L53.19,16.07L54.3,16L57.63,16.67L58.74,17.19L63.17,20.72L64.28,21.97L68.71,28.35L69.82,30.29L75.36,41.93L76.47,44.64L83.12,63.25L84.22,66.71L93.09,97.6L94.2,101.79L107.5,155.48L108.61,160.1L125.23,226.71L126.34,230.76L135.2,260.27L136.31,263.53L142.96,280.76L144.07,283.21L149.61,293.53L150.72,295.19L155.15,300.42L156.26,301.37L160.69,303.71L161.8,303.93L165.12,303.69L166.23,303.32L169.56,301.31L170.67,300.35L175.1,295.08L176.21,293.42L181.75,283.05L182.86,280.59L189.51,263.32L190.61,260.05L198.37,234.49L199.48,230.5L210.56,187.34L211.67,182.79L236.05,85.17L237.16,81.26L246.02,53.25L247.13,50.2L253.78,34.42L254.89,32.22L260.43,23.26L261.54,21.88L265.97,17.81L267.08,17.15L270.4,16.07L271.51,16L274.84,16.69L275.95,17.21L280.38,20.78L281.49,22.03L285.92,28.43L287.03,30.37L292.57,42.05L293.68,44.76L300.33,63.39L301.43,66.87L310.3,97.78L311.41,101.97L324.71,155.68L325.82,160.3L342.44,226.88L343.55,230.94L352.41,260.41L353.52,263.67L360.17,280.86L361.28,283.31L366.82,293.6L367.93,295.26L372.36,300.47L373.47,301.41L377.9,303.73L379.01,303.94L382.33,303.68L383.44,303.3L386.77,301.28L387.88,300.31L392.31,295.01L393.42,293.34L398.96,282.95L400.07,280.48L406.72,263.18L407.82,259.91L415.58,234.32L416.69,230.33L427.77,187.14L428.88,182.59L453.26,85L454.37,81.09L463.23,53.11L464.34,50.08L470.99,34.32L472.1,32.13L477.64,23.2L478.75,21.83L483.18,17.78L484.29,17.13L487.62,16.06L488.72,16L492.05,16.71L493.16,17.24L497.59,20.83L498.7,22.08L503.13,28.51L504.24,30.46L509.78,42.16L510.89,44.88L517.54,63.54L518.65,67.02L527.51,97.96L528.62,102.16L541.92,155.88L543.03,160.5L553,201.46" style="vector-effect: none; fill: none; stroke: rgb(128, 128, 128); stroke-opacity: 1; stroke-dasharray: 9px, 9px; stroke-width: 2px; opacity: 1;"/></g><g class="points"/><g class="text"/></g></g></g></g><g class="zerolinelayer-above"/><path class="xlines-above crisp" d="M79,420.5H633" style="fill: none; stroke-width: 1px; stroke: rgb(221, 221, 221); stroke-opacity: 1;"/><path class="ylines-above crisp" d="M79.5,100V420" style="fill: none; stroke-width: 1px; stroke: rgb(221, 221, 221); stroke-opacity: 1;"/><g class="overlines-above"/><g class="xaxislayer-above"><g class="xtick"><text text-anchor="middle" x="0" y="435.4" transform="translate(80,0)" style="font-family: 'Open Sans', verdana, arial, sans-serif; font-size: 12px; fill: rgb(42, 63, 95); fill-opacity: 1; white-space: pre;">0</text></g><g class="xtick"><text text-anchor="middle" x="0" y="435.4" style="font-family: 'Open Sans', verdana, arial, sans-serif; font-size: 12px; fill: rgb(42, 63, 95); fill-opacity: 1; white-space: pre;" transform="translate(218.25,0)">2</text></g><g class="xtick"><text text-anchor="middle" x="0" y="435.4" style="font-family: 'Open Sans', verdana, arial, sans-serif; font-size: 12px; fill: rgb(42, 63, 95); fill-opacity: 1; white-space: pre;" transform="translate(356.5,0)">4</text></g><g class="xtick"><text text-anchor="middle" x="0" y="435.4" style="font-family: 'Open Sans', verdana, arial, sans-serif; font-size: 12px; fill: rgb(42, 63, 95); fill-opacity: 1; white-space: pre;" transform="translate(494.75,0)">6</text></g><g class="xtick"><text text-anchor="middle" x="0" y="435.4" style="font-family: 'Open Sans', verdana, arial, sans-serif; font-size: 12px; fill: rgb(42, 63, 95); fill-opacity: 1; white-space: pre;" transform="translate(633,0)">8</text></g></g><g class="yaxislayer-above"><g class="ytick"><text text-anchor="end" x="76.6" y="4.199999999999999" transform="translate(0,404)" style="font-family: 'Open Sans', verdana, arial, sans-serif; font-size: 12px; fill: rgb(42, 63, 95); fill-opacity: 1; white-space: pre;">−3</text></g><g class="ytick"><text text-anchor="end" x="76.6" y="4.199999999999999" style="font-family: 'Open Sans', verdana, arial, sans-serif; font-size: 12px; fill: rgb(42, 63, 95); fill-opacity: 1; white-space: pre;" transform="translate(0,356)">−2</text></g><g class="ytick"><text text-anchor="end" x="76.6" y="4.199999999999999" style="font-family: 'Open Sans', verdana, arial, sans-serif; font-size: 12px; fill: rgb(42, 63, 95); fill-opacity: 1; white-space: pre;" transform="translate(0,308)">−1</text></g><g class="ytick"><text text-anchor="end" x="76.6" y="4.199999999999999" style="font-family: 'Open Sans', verdana, arial, sans-serif; font-size: 12px; fill: rgb(42, 63, 95); fill-opacity: 1; white-space: pre;" transform="translate(0,260)">0</text></g><g class="ytick"><text text-anchor="end" x="76.6" y="4.199999999999999" style="font-family: 'Open Sans', verdana, arial, sans-serif; font-size: 12px; fill: rgb(42, 63, 95); fill-opacity: 1; white-space: pre;" transform="translate(0,212)">1</text></g><g class="ytick"><text text-anchor="end" x="76.6" y="4.199999999999999" style="font-family: 'Open Sans', verdana, arial, sans-serif; font-size: 12px; fill: rgb(42, 63, 95); fill-opacity: 1; white-space: pre;" transform="translate(0,164)">2</text></g><g class="ytick"><text text-anchor="end" x="76.6" y="4.199999999999999" style="font-family: 'Open Sans', verdana, arial, sans-serif; font-size: 12px; fill: rgb(42, 63, 95); fill-opacity: 1; white-space: pre;" transform="translate(0,116)">3</text></g></g><g class="overaxes-above"/></g></g><g class="polarlayer"/><g class="smithlayer"/><g class="ternarylayer"/><g class="geolayer"/><g class="funnelarealayer"/><g class="pielayer"/><g class="iciclelayer"/><g class="treemaplayer"/><g class="sunburstlayer"/><g class="glimages"/><defs id="topdefs-77d8d2"><g class="clips"/><clipPath id="legend77d8d2"><rect width="144" height="48" x="0" y="0"/></clipPath></defs><g class="layer-above"><g class="imagelayer"/><g class="shapelayer"/></g><g class="infolayer"><g class="legend" pointer-events="all" transform="translate(644.0600000000001,100)"><rect class="bg" shape-rendering="crispEdges" style="stroke: rgb(68, 68, 68); stroke-opacity: 1; fill: rgb(255, 255, 255); fill-opacity: 1; stroke-width: 0px;" width="144" height="48" x="0" y="0"/><g class="scrollbox" transform="" clip-path="url(#legend77d8d2)"><g class="groups"><g class="traces" transform="translate(0,14.5)" style="opacity: 1;"><text class="legendtext" text-anchor="start" x="40" y="4.680000000000001" style="font-family: 'Open Sans', verdana, arial, sans-serif; font-size: 12px; fill: rgb(42, 63, 95); fill-opacity: 1; white-space: pre;">theta(t)</text><g class="layers" style="opacity: 1;"><g class="legendfill"/><g class="legendlines"><path class="js-line" d="M5,0h30" style="fill: none; stroke: rgb(255, 0, 0); stroke-opacity: 1; stroke-width: 2px;"/></g><g class="legendsymbols"><g class="legendpoints"/></g></g><rect class="legendtoggle" x="0" y="-9.5" width="138.046875" height="19" style="fill: rgb(0, 0, 0); fill-opacity: 0;"/></g><g class="traces" transform="translate(0,33.5)" style="opacity: 1;"><text class="legendtext" text-anchor="start" x="40" y="4.680000000000001" style="font-family: 'Open Sans', verdana, arial, sans-serif; font-size: 12px; fill: rgb(42, 63, 95); fill-opacity: 1; white-space: pre;">3 sin(2t) (input)</text><g class="layers" style="opacity: 1;"><g class="legendfill"/><g class="legendlines"><path class="js-line" d="M5,0h30" style="fill: none; stroke: rgb(128, 128, 128); stroke-opacity: 1; stroke-dasharray: 9px, 9px; stroke-width: 2px;"/></g><g class="legendsymbols"><g class="legendpoints"/></g></g><rect class="legendtoggle" x="0" y="-9.5" width="138.046875" height="19" style="fill: rgb(0, 0, 0); fill-opacity: 0;"/></g></g></g><rect class="scrollbar" rx="20" ry="3" width="0" height="0" style="fill: rgb(128, 139, 164); fill-opacity: 1;" x="0" y="0"/></g><g class="g-gtitle"><text class="gtitle" x="40" y="50" text-anchor="start" dy="0em" style="opacity: 1; font-family: 'Open Sans', verdana, arial, sans-serif; font-size: 17px; fill: rgb(42, 63, 95); fill-opacity: 1; white-space: pre;">Pendulum forced by tau(t) = 3 sin(2t)</text></g><g class="g-xtitle"><text class="xtitle" x="356.5" y="462.700390625" text-anchor="middle" style="opacity: 1; font-family: 'Open Sans', verdana, arial, sans-serif; font-size: 14px; fill: rgb(42, 63, 95); fill-opacity: 1; white-space: pre;">t (s)</text></g><g class="g-ytitle"><text class="ytitle" transform="rotate(-90,39.746484375,260)" x="39.746484375" y="260" text-anchor="middle" style="opacity: 1; font-family: 'Open Sans', verdana, arial, sans-serif; font-size: 14px; fill: rgb(42, 63, 95); fill-opacity: 1; white-space: pre;">theta (rad)  /  tau (N·m)</text></g></g></svg>