<svg class="main-svg" xmlns="http://www.w3.org/2000/svg" xmlns:xlink="http://www.w3.org/1999/xlink" width="800" height="500" style="" viewBox="0 0 800 500"><rect x="0" y="0" width="800" height="500" style="fill: rgb(255, 255, 255); fill-opacity: 1;"/><defs id="defs-5709da"><g class="clips"><clipPath id="clip5709daxyplot" class="plotclip"><rect width="533" height="320"/></clipPath><clipPath class="axesclip" id="clip5709dax"><rect x="80" y="0" width="533" height="500"/></clipPath><clipPath class="axesclip" id="clip5709day"><rect x="0" y="100" width="800" height="320"/></clipPath><clipPath class="axesclip" id="clip5709daxy"><rect x="80" y="100" width="533" height="320"/></clipPath></g><g class="gradients"/><g class="patterns"/></defs><g class="bglayer"/><g class="layer-below"><g class="imagelayer"/><g class="shapelayer"/></g><g class="cartesianlayer"><g class="subplot xy"><g class="layer-subplot"><g class="shapelayer"/><g class="imagelayer"/></g><g class="minor-gridlayer"><g class="x"/><g class="y"/></g><g class="gridlayer"><g class="x"><path class="xgrid crisp" transform="translate(168.82999999999998,0)" d="M0,100v320" style="stroke: rgb(221, 221, 221); stroke-opacity: 1; stroke-width: 1px;"/><path class="xgrid crisp" transform="translate(257.66999999999996,0)" d="M0,100v320" style="stroke: rgb(221, 221, 221); stroke-opacity: 1; stroke-width: 1px;"/><path class="xgrid crisp" transform="translate(346.5,0)" d="M0,100v320" style="stroke: rgb(221, 221, 221); stroke-opacity: 1; stroke-width: 1px;"/><path class="xgrid crisp" transform="translate(435.33,0)" d="M0,100v320" style="stroke: rgb(221, 221, 221); stroke-opacity: 1; stroke-width: 1px;"/><path class="xgrid crisp" transform="translate(524.1700000000001,0)" d="M0,100v320" style="stroke: rgb(221, 221, 221); stroke-opacity: 1; stroke-width: 1px;"/></g><g class="y"><path class="ygrid crisp" transform="translate(0,351.69)" d="M80,0h533" style="stroke: rgb(221, 221, 221); stroke-opacity: 1; stroke-width: 1px;"/><path class="ygrid crisp" transform="translate(0,299.38)" d="M80,0h533" style="stroke: rgb(221, 221, 221); stroke-opacity: 1; stroke-width: 1px;"/><path class="ygrid crisp" transform="translate(0,247.07)" d="M80,0h533" style="stroke: rgb(221, 221, 221); stroke-opacity: 1; stroke-width: 1px;"/><path class="ygrid crisp" transform="translate(0,194.76)" d="M80,0h533" style="stroke: rgb(221, 221, 221); stroke-opacity: 1; stroke-width: 1px;"/><path class="ygrid crisp" transform="translate(0,142.46)" d="M80,0h533" style="stroke: rgb(221, 221, 221); stroke-opacity: 1; stroke-width: 1px;"/></g></g><g class="zerolinelayer"><path class="yzl zl crisp" transform="translate(0,404)" d="M80,0h533" style="stroke: rgb(0, 0, 0); stroke-opacity: 1; stroke-width: 1px;"/></g><g class="layer-between"><g class="shapelayer"/><g class="imagelayer"/></g><path class="xlines-below"/><path class="ylines-below"/><g class="overlines-below"/><g class="xaxislayer-below"/><g class="yaxislayer-below"/><g class="overaxes-below"/><g class="overplot"><g class="xy" transform="translate(80,100)" clip-path="url(#clip5709daxyplot)"><g class="scatterlayer mlayer"><g class="trace scatter trace739398" style="stroke-miterlimit: 2; opacity: 1;"><g class="fills"/><g class="errorbars"/><g class="lines"><path class="js-line" d="M0,304L3.2,303.15L4.26,302.5L7.46,299.43L8.53,298.04L12.79,290.73L13.86,288.48L19.19,274.85L20.25,271.67L26.65,249.89L27.72,245.85L37.31,205.7L38.38,200.93L59.7,106.89L60.76,102.77L68.22,77.03L69.29,73.86L75.69,57.93L76.75,55.82L81.02,49.06L82.08,47.8L86.35,44.52L87.41,44.14L90.61,44.09L91.68,44.43L94.87,46.51L95.94,47.56L100.2,53.44L101.27,55.33L106.6,67.1L107.67,69.9L114.06,89.46L115.13,93.13L123.66,125.84L124.72,130.25L151.37,240.64L152.44,244.32L158.83,263.97L159.9,266.8L165.23,278.77L166.3,280.71L170.56,286.88L171.63,288.02L175.89,290.87L176.96,291.15L180.15,291L181.22,290.61L184.42,288.42L185.48,287.36L189.75,281.51L190.81,279.65L196.14,268.16L197.21,265.45L203.61,246.56L204.67,243.03L213.2,211.67L214.27,207.45L239.85,106.31L240.92,102.75L248.38,80.88L249.44,78.25L254.77,67.14L255.84,65.36L260.1,59.74L261.17,58.72L265.43,56.27L266.5,56.06L269.7,56.41L270.76,56.84L273.96,59.11L275.03,60.19L279.29,66L280.36,67.82L285.69,79.02L286.75,81.65L293.15,99.88L294.22,103.28L303.81,137.36L304.88,141.44L328.33,229.86L329.39,233.31L336.86,254.56L337.92,257.14L343.25,268.1L344.32,269.88L348.58,275.58L349.65,276.63L353.91,279.33L354.98,279.62L358.18,279.57L359.24,279.24L362.44,277.35L363.51,276.42L367.77,271.24L368.84,269.59L374.17,259.32L375.23,256.89L381.63,239.93L382.69,236.75L391.22,208.49L392.29,204.69L417.87,113.09L418.94,109.85L426.4,89.93L427.47,87.52L432.8,77.35L433.86,75.71L438.13,70.52L439.19,69.58L443.46,67.25L444.52,67.03L447.72,67.26L448.79,67.62L453.05,70.53L454.12,71.62L458.38,77.31L459.45,79.06L464.78,89.68L465.84,92.16L472.24,109.12L473.3,112.26L482.9,143.51L483.96,147.23L506.35,223.61L507.42,226.73L514.88,246.09L515.94,248.44L521.27,258.48L522.34,260.11L527.67,266.35L528.74,267.19L533,269.18" style="vector-effect: none; fill: none; stroke: rgb(0, 0, 255); stroke-opacity: 1; stroke-width: 2px; opacity: 1;"/></g><g class="points"/><g class="text"/></g><g class="trace scatter trace3f0e74" style="stroke-miterlimit: 2; opacity: 1;"><g class="fills"/><g class="errorbars"/><g class="lines"><path class="js-line" d="M0,304L3.2,303.15L4.26,302.5L7.46,299.43L8.53,298.04L12.79,290.73L13.86,288.48L19.19,274.85L20.25,271.67L26.65,249.88L27.72,245.84L37.31,205.62L38.38,200.83L62.89,91.73L63.96,87.58L72.49,57.87L73.55,54.64L79.95,37.78L81.02,35.42L86.35,25.56L87.41,24L91.68,19.12L92.74,18.26L97.01,16.19L98.07,16.02L101.27,16.38L102.34,16.78L106.6,19.77L107.67,20.87L111.93,26.6L113,28.36L118.33,39.12L119.39,41.65L125.79,59.24L126.85,62.56L134.32,88.46L135.38,92.5L146.04,136.26L147.11,140.87L167.36,226.22L168.43,230.2L175.89,255.25L176.96,258.37L183.35,274.28L184.42,276.42L188.68,283.47L189.75,284.84L194.01,288.65L195.08,289.19L198.28,289.79L199.34,289.66L202.54,288.25L203.61,287.45L207.87,282.62L208.94,281.02L214.27,270.75L215.33,268.27L221.73,250.68L222.79,247.34L230.26,221.3L231.32,217.27L244.11,165.5L245.18,161.07L260.1,102.38L261.17,98.61L269.7,71.46L270.76,68.5L277.16,53L278.23,50.81L283.56,41.7L284.62,40.24L288.89,35.7L289.95,34.88L294.22,32.91L295.28,32.74L299.55,33.37L300.61,33.85L304.88,37.04L305.94,38.16L310.21,43.84L311.27,45.57L316.6,55.93L317.67,58.33L324.06,74.94L325.13,78.04L333.66,105.8L334.72,109.59L347.52,158.21L348.58,162.39L364.57,221.89L365.64,225.42L373.1,247.5L374.17,250.24L380.56,264.11L381.63,265.96L385.89,272L386.96,273.15L391.22,276.29L392.29,276.7L395.49,277.03L396.55,276.84L399.75,275.38L400.82,274.59L405.08,270.01L406.15,268.52L411.48,259.04L412.54,256.77L418.94,240.74L420,237.71L428.53,210.54L429.6,206.84L460.51,97.8L461.58,94.66L469.04,75.12L470.11,72.7L476.5,60.37L477.57,58.69L482.9,51.99L483.96,51L488.23,48.2L489.29,47.8L493.56,47.37L494.62,47.56L498.89,49.5L499.95,50.28L504.22,54.53L505.28,55.88L510.61,64.23L511.68,66.21L518.08,80.16L519.14,82.81L526.6,103.54L527.67,106.79L533,123.85" style="vector-effect: none; fill: none; stroke: rgb(255, 0, 0); stroke-opacity: 1; stroke-width: 2px; opacity: 1;"/></g><g class="points"/><g class="text"/></g></g></g></g><g class="zerolinelayer-above"/><path class="xlines-above crisp" d="M79,420.5H613" style="fill: none; stroke-width: 1px; stroke: rgb(221, 221, 221); stroke-opacity: 1;"/><path class="ylines-above crisp" d="M79.5,100V420" style="fill: none; stroke-width: 1px; stroke: rgb(221, 221, 221); stroke-opacity: 1;"/><g class="overlines-above"/><g class="xaxislayer-above"><g class="xtick"><text text-anchor="middle" x="0" y="435.4" transform="translate(80,0)" style="font-family: 'Open Sans', verdana, arial, sans-serif; font-size: 12px; fill: rgb(42, 63, 95); fill-opacity: 1; white-space: pre;">0</text></g><g class="xtick"><text text-anchor="middle" x="0" y="435.4" style="font-family: 'Open Sans', verdana, arial, sans-serif; font-size: 12px; fill: rgb(42, 63, 95); fill-opacity: 1; white-space: pre;" transform="translate(168.82999999999998,0)">1</text></g><g class="xtick"><text text-anchor="middle" x="0" y="435.4" style="font-family: 'Open Sans', verdana, arial, sans-serif; font-size: 12px; fill: rgb(42, 63, 95); fill-opacity: 1; white-space: pre;" transform="translate(257.66999999999996,0)">2</text></g><g class="xtick"><text text-anchor="middle" x="0" y="435.4" style="font-family: 'Open Sans', verdana, arial, sans-serif; font-size: 12px; fill: rgb(42, 63, 95); fill-opacity: 1; white-space: pre;" transform="translate(346.5,0)">3</text></g><g class="xtick"><text text-anchor="middle" x="0" y="435.4" style="font-family: 'Open Sans', verdana, arial, sans-serif; font-size: 12px; fill: rgb(42, 63, 95); fill-opacity: 1; white-space: pre;" transform="translate(435.33,0)">4</text></g><g class="xtick"><text text-anchor="middle" x="0" y="435.4" style="font-family: 'Open Sans', verdana, arial, sans-serif; font-size: 12px; fill: rgb(42, 63, 95); fill-opacity: 1; white-space: pre;" transform="translate(524.1700000000001,0)">5</text></g><g class="xtick"><text text-anchor="middle" x="0" y="435.4" style="font-family: 'Open Sans', verdana, arial, sans-serif; font-size: 12px; fill: rgb(42, 63, 95); fill-opacity: 1; white-space: pre;" transform="translate(613,0)">6</text></g></g><g class="yaxislayer-above"><g class="ytick"><text text-anchor="end" x="76.6" y="4.199999999999999" transform="translate(0,404)" style="font-family: 'Open Sans', verdana, arial, sans-serif; font-size: 12px; fill: rgb(42, 63, 95); fill-opacity: 1; white-space: pre;">0</text></g><g class="ytick"><text text-anchor="end" x="76.6" y="4.199999999999999" style="font-family: 'Open Sans', verdana, arial, sans-serif; font-size: 12px; fill: rgb(42, 63, 95); fill-opacity: 1; white-space: pre;" transform="translate(0,351.69)">0.2</text></g><g class="ytick"><text text-anchor="end" x="76.6" y="4.199999999999999" style="font-family: 'Open Sans', verdana, arial, sans-serif; font-size: 12px; fill: rgb(42, 63, 95); fill-opacity: 1; white-space: pre;" transform="translate(0,299.38)">0.4</text></g><g class="ytick"><text text-anchor="end" x="76.6" y="4.199999999999999" style="font-family: 'Open Sans', verdana, arial, sans-serif; font-size: 12px; fill: rgb(42, 63, 95); fill-opacity: 1; white-space: pre;" transform="translate(0,247.07)">0.6</text></g><g class="ytick"><text text-anchor="end" x="76.6" y="4.199999999999999" style="font-family: 'Open Sans', verdana, arial, sans-serif; font-size: 12px; fill: rgb(42, 63, 95); fill-opacity: 1; white-space: pre;" transform="translate(0,194.76)">0.8</text></g><g class="ytick"><text text-anchor="end" x="76.6" y="4.199999999999999" style="font-family: 'Open Sans', verdana, arial, sans-serif; font-size: 12px; fill: rgb(42, 63, 95); fill-opacity: 1; white-space: pre;" transform="translate(0,142.46)">1</text></g></g><g class="overaxes-above"/></g></g><g class="polarlayer"/><g class="smithlayer"/><g class="ternarylayer"/><g class="geolayer"/><g class="funnelarealayer"/><g class="pielayer"/><g class="iciclelayer"/><g class="treemaplayer"/><g class="sunburstlayer"/><g class="glimages"/><defs id="topdefs-5709da"><g class="clips"/><clipPath id="legend5709da"><rect width="164" height="48" x="0" y="0"/></clipPath></defs><g class="layer-above"><g class="imagelayer"/><g class="shapelayer"/></g><g class="infolayer"><g class="legend" pointer-events="all" transform="translate(623.66,100)"><rect class="bg" shape-rendering="crispEdges" style="stroke: rgb(68, 68, 68); stroke-opacity: 1; fill: rgb(255, 255, 255); fill-opacity: 1; stroke-width: 0px;" width="164" height="48" x="0" y="0"/><g class="scrollbox" transform="" clip-path="url(#legend5709da)"><g class="groups"><g class="traces" transform="translate(0,14.5)" style="opacity: 1;"><text class="legendtext" text-anchor="start" x="40" y="4.680000000000001" style="font-family: 'Open Sans', verdana, arial, sans-serif; font-size: 12px; fill: rgb(42, 63, 95); fill-opacity: 1; white-space: pre;">linear (small-angle)</text><g class="layers" style="opacity: 1;"><g class="legendfill"/><g class="legendlines"><path class="js-line" d="M5,0h30" style="fill: none; stroke: rgb(0, 0, 255); stroke-opacity: 1; stroke-width: 2px;"/></g><g class="legendsymbols"><g class="legendpoints"/></g></g><rect class="legendtoggle" x="0" y="-9.5" width="158.546875" height="19" style="fill: rgb(0, 0, 0); fill-opacity: 0;"/></g><g class="traces" transform="translate(0,33.5)" style="opacity: 1;"><text class="legendtext" text-anchor="start" x="40" y="4.680000000000001" style="font-family: 'Open Sans', verdana, arial, sans-serif; font-size: 12px; fill: rgb(42, 63, 95); fill-opacity: 1; white-space: pre;">nonlinear (true)</text><g class="layers" style="opacity: 1;"><g class="legendfill"/><g class="legendlines"><path class="js-line" d="M5,0h30" style="fill: none; stroke: rgb(255, 0, 0); stroke-opacity: 1; stroke-width: 2px;"/></g><g class="legendsymbols"><g class="legendpoints"/></g></g><rect class="legendtoggle" x="0" y="-9.5" width="158.546875" height="19" style="fill: rgb(0, 0, 0); fill-opacity: 0;"/></g></g></g><rect class="scrollbar" rx="20" ry="3" width="0" height="0" style="fill: rgb(128, 139, 164); fill-opacity: 1;" x="0" y="0"/></g><g class="g-gtitle"><text class="gtitle" x="40" y="50" text-anchor="start" dy="0em" style="opacity: 1; font-family: 'Open Sans', verdana, arial, sans-serif; font-size: 17px; fill: rgb(42, 63, 95); fill-opacity: 1; white-space: pre;">Pendulum step response: tau = 5 N·m for 6 s</text></g><g class="g-xtitle"><text class="xtitle" x="346.5" y="462.700390625" text-anchor="middle" style="opacity: 1; font-family: 'Open Sans', verdana, arial, sans-serif; font-size: 14px; fill: rgb(42, 63, 95); fill-opacity: 1; white-space: pre;">t (s)</text></g><g class="g-ytitle"><text class="ytitle" transform="rotate(-90,37.574609375,260)" x="37.574609375" y="260" text-anchor="middle" style="opacity: 1; font-family: 'Open Sans', verdana, arial, sans-serif; font-size: 14px; fill: rgb(42, 63, 95); fill-opacity: 1; white-space: pre;">theta (rad)</text></g></g></svg>